<svg width="56" height="56" viewBox="0 0 56 56" fill="none" xmlns="http://www.w3.org/2000/svg">
<path d="M12.4444 12.7686H43.5556V43.2315H12.4444V12.7686Z" fill="url(#paint0_linear_1_5760)"/>
<path d="M23.7937 28.2768H26.5513L25.1725 22.9294L23.7937 28.2768ZM14.7982 15.1539V40.8612H41.2413V15.1539H14.7982ZM28.0647 34.1398L27.0558 30.6646H23.3227L22.3138 34.1398H19.7579L23.3564 21.8533V20.5081H26.7867L30.8896 34.1398H28.0647V34.1398ZM34.8582 34.1398H32.1006V23.7703H34.8582V34.1398ZM33.4961 22.526C32.7067 22.526 32.0667 21.8935 32.0667 21.1135C32.0667 20.3334 32.7066 19.701 33.4961 19.701C34.2856 19.701 34.9254 20.3334 34.9254 21.1135C34.9254 21.8935 34.2855 22.526 33.4961 22.526Z" fill="url(#paint1_linear_1_5760)"/>
<defs>
<linearGradient id="paint0_linear_1_5760" x1="43.3935" y1="12.6065" x2="12.9036" y2="43.0964" gradientUnits="userSpaceOnUse">
<stop stop-color="#447A90"/>
<stop offset="0.0001" stop-color="#447A90"/>
</linearGradient>
<linearGradient id="paint1_linear_1_5760" x1="28.0197" y1="15.1107" x2="28.0197" y2="40.7314" gradientUnits="userSpaceOnUse">
<stop stop-color="#447A90"/>
<stop offset="0.0001"/>
</linearGradient>
</defs>
</svg>
